<svg xmlns="http://www.w3.org/2000/svg" viewBox="0 0 64 64">
  <circle cx="32" cy="32" r="30" fill="#25D366"/>
  <path fill="#fff" d="M46.6 17.2A20.4 20.4 0 0 0 32.1 11C20.8 11 11.6 20.2 11.6 31.5c0 3.6.9 7.1 2.7 10.2L11.4 53l11.6-3a20.5 20.5 0 0 0 9.1 2.3c11.3 0 20.5-9.2 20.5-20.5 0-5.5-2.1-10.7-6-14.6ZM32.1 48.8c-3 0-6-.8-8.5-2.3l-.6-.4-6.9 1.8 1.8-6.7-.4-.7a17 17 0 0 1-2.6-9.1c0-9.5 7.7-17.2 17.2-17.2 4.6 0 8.9 1.8 12.2 5a17 17 0 0 1 5 12.2c0 9.5-7.7 17.3-17.2 17.3Zm9.4-12.9c-.5-.3-3.1-1.5-3.5-1.7-.5-.2-.9-.3-1.2.3-.4.5-1.4 1.7-1.7 2-.3.4-.6.4-1.2.2-.5-.3-2.2-.8-4.2-2.6a15.7 15.7 0 0 1-2.9-3.6c-.3-.5 0-.8.2-1.1l.8-.9c.3-.3.4-.5.5-.9.2-.3.1-.6 0-.9-.2-.3-1.2-2.9-1.6-3.9-.4-1.1-.9-.9-1.2-.9h-1c-.4 0-.9.1-1.4.7-.5.5-1.8 1.8-1.8 4.4s1.9 5.1 2.1 5.5c.3.3 3.7 5.7 9 8 1.3.5 2.2.9 3 1.1 1.3.4 2.4.3 3.3.2 1-.1 3.1-1.2 3.5-2.5.4-1.2.4-2.2.3-2.5-.1-.2-.5-.3-1-.6Z"/>
</svg>
